<svg viewBox="-112.37350000000002 36.35799999999996 832.572 320.5440000000001" fill="none" xmlns="http://www.w3.org/2000/svg" xmlns:xlink="http://www.w3.org/1999/xlink" overflow="visible" width="770.9px" height="296.80000000000007px"><rect id="Blush Background Color" fill="#eff1f3" x="-112.37350000000002" y="36.35799999999996" width="832.572" height="320.5440000000001"/><g id="Master/Scenes/Buy Online"><g id="UI Windows" transform="translate(160 72) scale(1 1)"><g id="UI Windows/Credit Card"><g id="Group 49"><g id="Group 3"><path id="Fill 1" fill-rule="evenodd" clip-rule="evenodd" d="M142.248 187.629C142.248 193.713 137.29 198.664 131.196 198.664H41.0103C34.9153 198.664 29.9578 193.713 29.9578 187.629V30.7225H142.248V187.629ZM131.196 0.83252H41.0103C34.3873 0.83252 28.9995 6.21242 28.9995 12.8249V187.629C28.9995 194.241 34.3873 199.621 41.0103 199.621H131.196C137.818 199.621 143.206 194.241 143.206 187.629V12.8249C143.206 6.21242 137.818 0.83252 131.196 0.83252V0.83252Z" fill="#766CFD"/></g><path id="Stroke 4 (Stroke)" fill-rule="evenodd" clip-rule="evenodd" d="M46.8605 12.952C44.7134 12.952 42.952 14.7422 42.952 16.976C42.952 19.2098 44.7134 21 46.8605 21H111.092C113.239 21 115 19.2099 115 16.976C115 14.7421 113.239 12.952 111.092 12.952H46.8605ZM42 16.976C42 14.2399 44.1644 12 46.8605 12H111.092C113.788 12 115.952 14.24 115.952 16.976C115.952 19.712 113.788 21.952 111.092 21.952H46.8605C44.1644 21.952 42 19.7121 42 16.976Z" fill="white"/><path id="Stroke 6 (Stroke)" fill-rule="evenodd" clip-rule="evenodd" d="M125.114 12.8373C123.934 11.657 122.019 11.6568 120.837 12.8375C119.657 14.0191 119.657 15.9339 120.837 17.1144C122.019 18.2953 123.934 18.2951 125.115 17.1145C126.295 15.934 126.295 14.019 125.114 12.8373ZM120.164 12.1642C121.718 10.612 124.235 10.6118 125.788 12.1643L125.788 12.1644C127.34 13.7176 127.34 16.2353 125.788 17.7877C124.235 19.3402 121.718 19.34 120.164 17.7878L120.164 17.7877C118.612 16.2353 118.612 13.7176 120.164 12.1644L120.164 12.1642Z" fill="white"/><path id="Stroke 8 (Stroke)" fill-rule="evenodd" clip-rule="evenodd" d="M130 21.6732L125 16.6732L125.673 16L130.673 21L130 21.6732Z" fill="white"/><path id="Fill 10" fill-rule="evenodd" clip-rule="evenodd" d="M118.207 130H54.7926C53.2503 130 52 128.747 52 127.202V54.7967C52 53.2521 53.2503 52 54.7926 52H118.207C119.75 52 121 53.2521 121 54.7967V127.202C121 128.747 119.75 130 118.207 130" fill="#E7E5FD"/><path id="Fill 12" fill-rule="evenodd" clip-rule="evenodd" d="M116.591 161H56.4084C53.9737 161 52 158.986 52 156.5C52 154.014 53.9737 152 56.4084 152H116.591C119.026 152 121 154.014 121 156.5C121 158.986 119.026 161 116.591 161" fill="#B5B1FD"/><path id="Fill 14" fill-rule="evenodd" clip-rule="evenodd" d="M116.591 146H56.4084C53.9737 146 52 143.986 52 141.5C52 139.014 53.9737 137 56.4084 137H116.591C119.026 137 121 139.014 121 141.5C121 143.986 119.026 146 116.591 146" fill="#B5B1FD"/><path id="Fill 16" fill-rule="evenodd" clip-rule="evenodd" d="M217.957 147H96.0422C91.0481 147 87 142.911 87 137.867V68.1327C87 63.0886 91.0481 59 96.0422 59H217.957C222.951 59 227 63.0886 227 68.1327V137.867C227 142.911 222.951 147 217.957 147" fill="#766CFD"/><path id="Fill 18" fill-rule="evenodd" clip-rule="evenodd" d="M87 109H227V90H87V109Z" fill="black"/><path id="Fill 20" fill-rule="evenodd" clip-rule="evenodd" d="M193 128C193 135.18 187.18 141 180 141C172.821 141 167 135.18 167 128C167 120.821 172.821 115 180 115C187.18 115 193 120.821 193 128" fill="#83EDC4"/><path id="Fill 22" fill-rule="evenodd" clip-rule="evenodd" d="M211 128C211 135.18 205.179 141 198 141C190.82 141 185 135.18 185 128C185 120.821 190.82 115 198 115C205.179 115 211 120.821 211 128" fill="black"/><path id="Fill 24" fill-rule="evenodd" clip-rule="evenodd" d="M186 128.5C186 132.237 187.543 135.596 190 138C192.457 135.596 194 132.237 194 128.5C194 124.763 192.457 121.404 190 119C187.543 121.404 186 124.763 186 128.5" fill="#5DA086"/><path id="Stroke 26 (Stroke)" fill-rule="evenodd" clip-rule="evenodd" d="M101.408 68.179C100.211 68.179 99.179 69.2231 99.179 70.5895C99.179 71.9568 100.211 73 101.408 73H135.771C136.968 73 138 71.9568 138 70.5895C138 69.2231 136.968 68.179 135.771 68.179H101.408ZM98 70.5895C98 68.6422 99.4919 67 101.408 67H135.771C137.687 67 139.179 68.6422 139.179 70.5895C139.179 72.538 137.687 74.179 135.771 74.179H101.408C99.492 74.179 98 72.538 98 70.5895Z" fill="white"/><path id="Stroke 28 (Stroke)" fill-rule="evenodd" clip-rule="evenodd" d="M101.411 79.179C100.211 79.179 99.179 80.2228 99.179 81.5885C99.179 82.9556 100.212 84 101.411 84H158.768C159.967 84 161 82.9556 161 81.5885C161 80.2228 159.968 79.179 158.768 79.179H101.411ZM98 81.5885C98 79.6405 99.4935 78 101.411 78H158.768C160.685 78 162.179 79.6405 162.179 81.5885C162.179 83.5371 160.686 85.179 158.768 85.179H101.411C99.4932 85.179 98 83.5371 98 81.5885Z" fill="white"/><path id="Fill 30" fill-rule="evenodd" clip-rule="evenodd" d="M189.35 188.46C189.571 188.708 189.788 188.959 190 189.216C189.122 190.201 188.558 191.326 187.705 192.335C180.879 201.527 174.053 210.72 167.228 219.914C163.891 224.408 157.554 225.338 153.074 221.99C148.593 218.642 147.667 212.286 151.003 207.791C151.019 207.771 151.034 207.751 151.048 207.731C154.325 203.318 157.601 198.905 160.878 194.491C163.286 191.248 165.695 188.004 168.103 184.76C169.466 182.925 171.484 178.716 174.307 179.015C174.679 179.055 175.031 179.195 175.377 179.335C180.572 181.448 185.618 184.286 189.35 188.46" fill="#42B78A"/><path id="Fill 32" fill-rule="evenodd" clip-rule="evenodd" d="M194.769 107.749C172.85 112.013 158.486 133.313 162.749 155.23C167.013 177.15 188.313 191.514 210.231 187.251C232.15 182.988 246.514 161.688 242.251 139.769C237.989 117.85 216.689 103.486 194.769 107.749" fill="white"/><g id="Group 36"><path id="Fill 34" fill-rule="evenodd" clip-rule="evenodd" d="M196.381 111.58C176.446 115.459 163.382 134.842 167.259 154.787C171.136 174.732 190.508 187.803 210.444 183.924C230.379 180.044 243.443 160.663 239.566 140.717C235.689 120.772 216.316 107.701 196.381 111.58M212.438 194.187C186.847 199.166 161.978 182.387 157.001 156.783C152.024 131.179 168.795 106.296 194.386 101.317C219.978 96.3372 244.847 113.116 249.824 138.721C254.8 164.325 238.031 189.207 212.438 194.187" fill="#56D6A9"/></g><path id="Fill 37" fill-rule="evenodd" clip-rule="evenodd" d="M231.032 160C230.425 160 229.826 159.735 229.441 159.234L215.38 140.973C214.738 140.139 214.929 138.97 215.808 138.362C216.687 137.749 217.919 137.934 218.56 138.767L232.62 157.028C233.263 157.861 233.071 159.031 232.192 159.639C231.842 159.883 231.435 160 231.032 160" fill="#5035B5"/><path id="Fill 39" fill-rule="evenodd" clip-rule="evenodd" d="M216.968 160C216.565 160 216.158 159.883 215.808 159.639C214.929 159.031 214.737 157.861 215.38 157.028L229.44 138.767C230.081 137.934 231.313 137.749 232.192 138.362C233.071 138.97 233.262 140.139 232.62 140.973L218.559 159.234C218.174 159.735 217.575 160 216.968 160" fill="#5035B5"/><path id="Fill 41" fill-rule="evenodd" clip-rule="evenodd" d="M209.032 160C208.425 160 207.825 159.735 207.44 159.234L193.379 140.973C192.738 140.139 192.929 138.97 193.808 138.361C194.686 137.75 195.919 137.933 196.56 138.767L210.62 157.027C211.262 157.861 211.07 159.031 210.193 159.639C209.842 159.883 209.436 160 209.032 160" fill="#5035B5"/><path id="Fill 43" fill-rule="evenodd" clip-rule="evenodd" d="M194.968 160C194.564 160 194.158 159.883 193.807 159.639C192.93 159.031 192.738 157.861 193.38 157.027L207.44 138.767C208.082 137.933 209.315 137.75 210.192 138.361C211.071 138.97 211.262 140.139 210.621 140.973L196.56 159.234C196.175 159.735 195.575 160 194.968 160" fill="#5035B5"/><path id="Fill 45" fill-rule="evenodd" clip-rule="evenodd" d="M190.032 160C189.425 160 188.825 159.735 188.44 159.234L174.379 140.973C173.738 140.139 173.929 138.97 174.808 138.361C175.685 137.75 176.918 137.933 177.56 138.767L191.62 157.027C192.262 157.861 192.07 159.031 191.193 159.639C190.842 159.883 190.436 160 190.032 160" fill="#5035B5"/><path id="Fill 47" fill-rule="evenodd" clip-rule="evenodd" d="M175.968 160C175.564 160 175.158 159.883 174.807 159.639C173.93 159.031 173.738 157.861 174.38 157.027L188.44 138.767C189.081 137.933 190.314 137.75 191.192 138.361C192.071 138.97 192.262 140.139 191.621 140.973L177.56 159.234C177.175 159.735 176.575 160 175.968 160" fill="#5035B5"/></g></g></g><g id="Master/Character/Standing" transform="translate(-73 64) scale(1 1)"><g id="Master/Character/Standing"><g id="Lower Body/Standing" transform="translate(55 -12) scale(1 1)"><g id="Lower Body/Standing/Green Pants Box"><g id="Group 18"><path id="Fill 1" fill-rule="evenodd" clip-rule="evenodd" d="M176.684 205.045C184.004 205.059 191.324 205.07 198.643 205.089C199.388 205.09 200.132 205.126 200.876 205.147C200.654 208.699 201.493 209.468 200.876 213C202.444 214.021 208.417 215.803 210 216.5C213.492 218.039 214.403 220 214.403 222.337C213.86 222.365 213.318 222.418 212.776 222.418C199.997 222.422 187.218 222.421 174.438 222.416C174.033 222.416 173.628 222.363 173.223 222.335C173.485 221.231 173.739 220.124 174.012 219.023C175.154 214.411 175.985 209.74 176.684 205.045Z" fill="#B68DF5"/><g id="Group 5"><path id="Fill 3" fill-rule="evenodd" clip-rule="evenodd" d="M173.223 222.335C173.628 222.363 174.034 222.416 174.439 222.416C187.218 222.421 199.997 222.422 212.777 222.418C213.319 222.418 213.861 222.365 214.403 222.337C223.811 222.354 233.22 222.37 242.629 222.386C243.634 222.388 244.639 222.386 245.821 222.386V224.766C245.821 241.339 245.82 268.911 245.824 285.484C245.824 286.233 245.864 286.982 245.885 287.731C245.618 287.766 245.35 287.83 245.083 287.831C237.328 287.852 229.573 287.867 221.818 287.873C221.633 287.873 221.448 287.743 221.262 287.674C221.918 287.391 222.609 287.532 223.283 287.53C229.694 287.519 236.106 287.523 242.518 287.523H244.475C244.816 284.676 244.734 225.15 244.41 223.662C236.599 223.661 228.789 223.661 220.821 223.661V225.971C220.821 242.072 220.822 269.174 220.819 285.276C220.818 286.025 220.779 286.774 220.758 287.523C220.399 287.518 220.039 287.513 219.681 287.507C219.669 286.756 219.647 286.005 219.647 285.254C219.645 269.138 219.645 242.022 219.645 225.904V223.644H173.7V225.925C173.7 242.042 173.701 269.158 173.697 285.275C173.697 286.024 173.656 286.774 173.634 287.524C173.292 287.522 172.951 287.52 172.609 287.518C172.584 287.11 172.537 286.703 172.537 286.297C172.534 269.186 172.533 241.075 172.539 223.965C172.539 223.496 172.435 223.011 172.676 222.534C172.848 222.472 173.035 222.403 173.223 222.335" fill="#2FC775"/></g><g id="Group 8"><path id="Fill 6" fill-rule="evenodd" clip-rule="evenodd" d="M108.693 271.512C117.153 271.524 125.613 271.534 134.073 271.551C134.822 271.553 135.571 271.594 136.319 271.616C135.967 275.391 134.887 276.028 134.244 279.818C134.424 279.926 134.638 280.094 134.88 280.193C137.44 281.244 141.74 283.411 144.283 284.5C145.331 284.949 146 286.5 145.682 287.753C145.243 288.024 144.754 287.928 144.283 287.928C131.591 287.933 118.899 287.933 106.207 287.926C105.805 287.925 105.402 287.839 105 287.792C106.214 282.546 107.391 277.293 108.357 271.994C108.388 271.819 108.577 271.672 108.693 271.512Z" fill="#B68DF5"/><path id="Vector 4" d="M105 288L105.5 285.5L146 286L145.5 288H105Z" fill="#7E40D6"/></g><path id="Fill 9" fill-rule="evenodd" clip-rule="evenodd" d="M219.647 285.254C219.645 269.138 219.646 242.022 219.646 225.904V223.644H173.7V225.925C173.7 242.042 173.701 269.158 173.697 285.275C173.697 286.025 173.656 286.775 173.634 287.524C173.809 287.578 173.985 287.632 174.161 287.686C174.671 287.402 175.228 287.529 175.763 287.529C189.716 287.522 203.669 287.522 217.623 287.529C218.157 287.529 218.714 287.404 219.224 287.688C219.376 287.627 219.528 287.567 219.681 287.507C219.669 286.756 219.647 286.005 219.647 285.254" fill="#56D6A9"/><path id="Fill 11" fill-rule="evenodd" clip-rule="evenodd" d="M244.411 223.662C236.6 223.661 228.79 223.661 220.822 223.661V225.971C220.822 242.072 220.823 269.174 220.819 285.276C220.819 286.025 220.78 286.774 220.759 287.523C220.927 287.573 221.095 287.624 221.263 287.674C221.919 287.391 222.61 287.532 223.283 287.53C229.695 287.518 236.106 287.523 242.518 287.523H244.476C244.816 284.676 244.735 225.15 244.411 223.662" fill="#2FC775"/><g id="Group 18_2"><path id="Fill 3_2" fill-rule="evenodd" clip-rule="evenodd" d="M236.419 249C236.659 249.017 236.9 249.048 237.14 249.048C244.72 249.051 252.299 249.052 259.88 249.049C260.201 249.049 260.523 249.018 260.844 249.001C266.424 249.011 272.005 249.021 277.586 249.03C278.182 249.031 278.778 249.03 279.479 249.03V250.442C279.479 260.272 279.479 276.626 279.481 286.456C279.481 286.9 279.505 287.344 279.517 287.789C279.359 287.809 279.2 287.847 279.041 287.848C274.442 287.86 269.842 287.869 265.242 287.873C265.132 287.873 265.023 287.796 264.912 287.755C265.302 287.587 265.711 287.67 266.111 287.669C269.914 287.663 273.717 287.665 277.52 287.665H278.681C278.883 285.976 278.834 250.67 278.642 249.787C274.009 249.786 269.377 249.786 264.651 249.786V251.157C264.651 260.707 264.651 276.782 264.65 286.332C264.649 286.777 264.626 287.221 264.613 287.665C264.401 287.662 264.187 287.659 263.975 287.656C263.968 287.21 263.955 286.765 263.955 286.319C263.953 276.76 263.953 260.677 263.953 251.117V249.776H236.702V251.129C236.702 260.689 236.702 276.772 236.7 286.332C236.7 286.776 236.676 287.221 236.663 287.666C236.46 287.665 236.258 287.663 236.055 287.662C236.04 287.42 236.012 287.179 236.012 286.938C236.01 276.789 236.01 260.115 236.013 249.967C236.013 249.689 235.952 249.401 236.094 249.118C236.197 249.081 236.307 249.04 236.419 249" fill="#B68DF5"/></g><path id="Fill 14" fill-rule="evenodd" clip-rule="evenodd" d="M263.954 286.319C263.953 276.76 263.954 260.677 263.954 251.117V249.776H236.702V251.129C236.702 260.689 236.702 276.772 236.7 286.332C236.7 286.777 236.675 287.221 236.662 287.666C236.766 287.698 236.871 287.73 236.975 287.762C237.277 287.593 237.608 287.669 237.925 287.669C246.201 287.664 254.477 287.664 262.754 287.669C263.07 287.669 263.401 287.595 263.703 287.763C263.793 287.727 263.884 287.691 263.974 287.656C263.967 287.21 263.954 286.765 263.954 286.319" fill="#A072E7"/><path id="Fill 15" fill-rule="evenodd" clip-rule="evenodd" d="M278.642 249.787C274.009 249.786 269.377 249.786 264.651 249.786V251.157C264.651 260.707 264.651 276.782 264.649 286.332C264.649 286.777 264.626 287.221 264.614 287.665C264.713 287.695 264.813 287.725 264.912 287.755C265.302 287.587 265.711 287.67 266.111 287.669C269.914 287.662 273.716 287.665 277.519 287.665H278.681C278.883 285.976 278.834 250.67 278.642 249.787" fill="#B68DF5"/><path id="Fill 13" fill-rule="evenodd" clip-rule="evenodd" d="M158.971 145.755C158.982 145.754 158.993 145.754 159.005 145.753C159.003 145.744 159.005 145.738 159.004 145.731L158.971 145.755Z" fill="#064034"/><g id="Group 17"><path id="Fill 15_2" fill-rule="evenodd" clip-rule="evenodd" d="M216.431 173.637C215.991 170.28 215.329 166.984 214.261 163.776C212.094 157.264 208.488 151.701 203.283 147.191C202.573 146.575 201.598 146.262 201.145 145.349C200.435 145.288 199.918 144.834 199.336 144.492C195.447 142.208 191.281 140.808 186.768 140.342C185.011 140.16 183.266 139.954 181.502 140.008C176.203 140.169 171.072 141.222 166.084 142.991C164.662 142.991 162.9 144.222 161.451 144.513C159.48 144.908 157.416 145.038 155.423 145.302C151.274 145.85 147.126 146.409 142.98 146.979C134.687 148.117 126.4 149.298 118.119 150.522C117.704 152.972 105.871 268.734 105.693 271.512C114.153 271.524 130.54 271.983 139 272C139.749 272.002 139.752 266.978 140.5 267C141.248 267.022 146.5 271.515 146.993 271.515C147.705 270.753 147.492 270.032 147.493 269.376C147.499 265.226 147.918 261.092 148.077 256.948C148.181 254.239 148.175 251.509 148.444 248.812C148.743 245.825 148.552 231.74 148.865 228.776C149.138 226.194 149.048 223.617 149.221 221.046C149.612 215.216 149.86 209.381 150.124 203.545C150.241 200.971 150.16 198.368 150.492 195.821C150.95 192.309 150.527 188.763 151.091 185.268C151.108 185.162 150.973 185.033 150.909 184.913C151.084 184.565 151.26 184.216 151.435 183.867C155.262 181.679 159.268 179.933 163.62 179.109C165.428 178.766 167.29 178.706 169.082 179.134C171.796 179.782 173.734 181.453 175.042 183.947C176.293 186.33 176.832 188.848 177.098 191.503C177.307 193.604 177.582 195.719 177.313 197.787C176.999 200.204 177.234 202.658 176.684 205.044C184.004 205.058 198.68 205.026 206 205.044C206.745 205.045 205.756 199.979 206.5 200C206.5 200 211.267 205.341 215.678 205.044C216.278 202.35 217.102 199.5 217.102 197C217.962 192.391 216.894 188.018 217.102 183.358C217.247 180.103 216.854 176.869 216.431 173.637Z" fill="#16084E"/><path id="Vector 3" d="M173 222.5L174 219L214 220L214.5 222.5H173Z" fill="#7252BF"/></g></g><path id="Intersect" fill-rule="evenodd" clip-rule="evenodd" d="M116.663 165.824C117.388 165.72 118.109 165.622 118.824 165.525H118.824C123.881 164.837 128.658 164.188 132.879 161.599C136.389 159.446 138.954 157.296 141.055 154.742C142.947 152.442 144.489 149.783 146.001 146.435C146.776 146.329 147.552 146.224 148.327 146.119C146.612 150.095 144.857 153.268 142.599 156.013C140.328 158.774 137.579 161.062 133.925 163.304C129.316 166.13 124.077 166.837 119.049 167.514L119.048 167.515C118.282 167.618 117.521 167.72 116.768 167.83C116.662 167.845 116.555 167.861 116.449 167.876C116.522 167.176 116.593 166.492 116.663 165.824ZM107 260.157C107.069 259.466 107.142 258.748 107.216 258.005C112.725 256.416 118.991 255.693 124.319 255.397C130.311 255.064 136.304 254.84 142.319 254.84C144.399 254.84 146.554 254.81 148.363 254.254C148.361 254.323 148.359 254.391 148.357 254.46C148.341 255.088 148.324 255.716 148.302 256.343C146.294 256.833 144.119 256.84 142.319 256.84C136.353 256.84 130.399 257.063 124.43 257.394C118.889 257.702 112.456 258.473 107 260.157ZM217.218 178.703C213.972 178.064 210.758 177.241 207.611 176.168L207.426 176.295L207.421 176.298C206.92 176.642 206.417 176.987 205.911 177.333C198.277 182.545 192.304 188.152 186.939 195.697C184.93 198.524 183.049 201.618 181.39 204.889C180.61 204.888 179.863 204.888 179.156 204.888C180.977 201.177 183.071 197.687 185.309 194.538C190.827 186.778 196.978 181.01 204.783 175.681C204.854 175.632 204.926 175.583 204.997 175.534C205.097 175.466 205.197 175.397 205.297 175.329C204.871 175.164 204.445 174.995 204.021 174.82C192.385 170.026 184.691 163.418 177.528 153.192C174.883 149.416 172.61 145.535 170.643 141.485C171.304 141.31 171.967 141.148 172.633 141C174.511 144.818 176.669 148.48 179.166 152.044C186.135 161.993 193.537 168.337 204.783 172.971C205.62 173.316 206.464 173.64 207.314 173.946C210.091 172.044 212.873 170.172 215.798 168.524C215.945 169.211 216.079 169.902 216.201 170.596C214.001 171.868 211.857 173.277 209.693 174.746C212.098 175.502 214.547 176.119 217.025 176.624C217.1 177.317 217.166 178.01 217.218 178.703ZM150.418 200.259C146.184 199.776 141.818 200.13 138.031 201.152C136.605 201.537 134.777 202.06 133.231 202.979C131.661 203.913 130.276 205.322 129.942 207.494C129.287 211.749 130.327 214.932 132.55 217.225C134.723 219.465 137.912 220.735 141.339 221.465C143.88 222.006 146.641 222.266 149.355 222.378C149.373 221.881 149.397 221.384 149.43 220.887C149.441 220.719 149.453 220.551 149.464 220.383C146.842 220.276 144.196 220.028 141.756 219.509C138.49 218.813 135.756 217.658 133.986 215.832C132.265 214.058 131.343 211.534 131.918 207.798C132.131 206.415 132.995 205.447 134.253 204.698C135.535 203.936 137.114 203.471 138.552 203.083C142.19 202.102 146.369 201.785 150.373 202.268C150.386 201.805 150.396 201.341 150.405 200.877C150.41 200.671 150.414 200.465 150.418 200.259ZM149.198 227.092C143.725 225.643 137.893 225.34 132.68 225.34H110.533C110.464 226.009 110.396 226.676 110.328 227.34H132.68C138.019 227.34 143.768 227.672 149.032 229.119C149.045 228.928 149.059 228.759 149.074 228.617C149.128 228.109 149.168 227.6 149.198 227.092Z" fill="#341C93"/><path id="Intersect_2" fill-rule="evenodd" clip-rule="evenodd" d="M168.035 288.055C168.023 278.666 175.625 271.046 185.014 271.035C194.403 271.024 202.023 278.626 202.035 288.014L214.035 288C214.015 271.984 201.016 259.016 185 259.035C168.984 259.054 156.015 272.053 156.035 288.07L168.035 288.055Z" fill="#7E40D6"/></g></g><g id="Upper Body" transform="translate(-8 22) scale(1 1)"><g id="Upper Body/Holding Money"><g id="Group 24"><g id="Group 3"><path id="Fill 1" fill-rule="evenodd" clip-rule="evenodd" d="M265.063 60.9175C266.67 62.4095 268.435 63.7145 270.317 64.8455C271.395 65.4925 271.953 66.1295 273.017 65.6285C273.839 65.2415 274.644 63.7225 275.054 62.9575C276.576 60.1205 277.951 57.2245 278.896 54.1325C279.11 53.4305 278.99 52.5705 278.577 51.9545C278.33 51.5855 277.795 51.5905 277.54 51.2665C277.063 50.6635 277.344 50.0405 277.066 49.3925C276.692 48.5195 275.851 47.5515 274.926 47.2085C272.486 46.3055 270.11 48.5085 269.083 50.5115C268.757 51.1465 268.468 51.6035 267.926 52.0865C267.874 51.8635 267.784 51.6495 267.664 51.4555C267.607 51.3645 267.542 51.2765 267.453 51.2185C267.313 51.1255 267.135 51.1165 266.967 51.1135C266.634 51.1085 266.251 51.1385 266.048 51.4035C265.711 51.8465 265.533 52.5335 265.329 53.0505C265.046 53.7705 264.751 54.4845 264.495 55.2145C264.008 56.6035 263.538 58.1965 263.922 59.6675C263.969 59.8445 264.102 59.9835 264.23 60.1135C264.503 60.3875 264.78 60.6555 265.063 60.9175" fill="#4b3425"/></g><path id="Fill 4" fill-rule="evenodd" clip-rule="evenodd" d="M277.175 51.2427C277.008 51.2477 276.738 51.1877 276.69 51.2657C275.472 53.2317 274.633 55.3747 273.63 57.4417C274.206 57.7237 274.215 57.3937 274.348 57.1437C275.362 55.2377 276.095 53.1797 277.418 51.4387C277.326 51.3877 277.245 51.3217 277.175 51.2427" fill="#2C2021"/><path id="Fill 6" fill-rule="evenodd" clip-rule="evenodd" d="M271.551 54.3637C272.374 52.5607 273.197 50.7597 274.019 48.9567C273.912 48.9077 273.805 48.8587 273.698 48.8097C272.483 50.4207 271.744 52.2567 271.132 54.1507C271.271 54.2217 271.411 54.2937 271.551 54.3637" fill="#2C2021"/><path id="Fill 8" fill-rule="evenodd" clip-rule="evenodd" d="M268.817 53.646C267.772 55.395 267.28 57.312 268.619 59.079C268.832 58.869 268.989 58.631 268.813 58.334C268.136 57.198 268.427 56.067 268.799 54.926C268.927 54.536 269.105 53.936 268.817 53.646" fill="#2C2021"/><path id="Fill 10" fill-rule="evenodd" clip-rule="evenodd" d="M258.876 60.562C258.985 60.507 259.094 60.453 259.204 60.398C259.094 60.453 258.985 60.507 258.876 60.561C258.851 60.644 258.852 60.712 258.871 60.76C258.852 60.712 258.851 60.645 258.876 60.562M259.017 60.818C259.07 60.799 259.118 60.759 259.161 60.711C259.118 60.759 259.07 60.799 259.017 60.818C258.983 60.83 258.953 60.832 258.929 60.824C258.953 60.832 258.983 60.83 259.017 60.818M263.351 59.762C263.375 59.878 263.378 60 263.327 60.128C263.378 60 263.375 59.878 263.351 59.762M149.36 117.468C149.371 117.411 155.073 76.969 199.468 73.104C206.552 72.488 213.443 74.274 220.489 74.973C221.748 75.098 222.649 75.124 223.333 75.192C223.336 75.177 223.339 75.164 223.342 75.15C232.031 75.26 240.112 72.611 247.698 67.645C250.959 65.509 253.86 62.931 256.73 60.314C256.921 60.085 257.113 59.857 257.304 59.628C257.483 59.447 257.662 59.264 257.841 59.083C259.017 57.89 259.72 56.999 261.319 56.385C264.713 59.183 268.386 61.642 271.773 64.432C273.598 65.936 272.229 66.348 270.981 67.973C269.863 69.43 268.819 70.934 267.595 72.308C265.205 74.991 262.57 77.414 260.016 79.926C256.833 83.058 253.189 85.61 249.532 88.083C245.914 90.529 242.023 92.581 237.88 94.131C234.331 95.458 230.707 96.33 227.013 96.735C227.021 97.392 227.038 98.037 227.075 98.655C227.423 104.449 227.649 111.06 228.911 116.734C210.063 117.024 191.214 117.315 172.366 117.606C172.801 116.771 173.235 115.935 173.669 115.101C172.512 115.531 171.334 115.9 170.147 116.237C167.957 119.378 166.077 122.921 166.385 126.694C166.61 129.443 168.017 132.009 169.947 133.98C171.865 135.898 174.266 137.458 176.795 138.446C176.032 139.921 174.258 140.58 173.403 142.113C172.134 144.391 171.766 147.14 170.98 149.599C170.649 149.593 170.309 149.639 169.99 149.574C158.106 147.145 146.131 134.061 149.36 117.468" fill="#C6A9FF"/><path id="Fill 12" fill-rule="evenodd" clip-rule="evenodd" d="M181.9 140.77C181.761 140.822 181.623 140.874 181.484 140.926C181.692 141.361 181.813 141.016 181.956 140.873L181.9 140.77Z" fill="#083D32"/><path id="Fill 14" fill-rule="evenodd" clip-rule="evenodd" d="M150.319 107.479C146.566 120.995 154.479 134.993 167.993 138.746C181.508 142.5 195.507 134.586 199.26 121.072C203.014 107.557 195.101 93.558 181.586 89.805C168.071 86.051 154.072 93.964 150.319 107.479Z" fill="#6632CD"/><g id="Group 18"><path id="Fill 16" fill-rule="evenodd" clip-rule="evenodd" d="M174.756 91.3148C176.818 91.3148 178.891 91.5948 180.932 92.1618C186.839 93.8018 191.753 97.6438 194.77 102.981C197.786 108.318 198.545 114.51 196.903 120.417C193.517 132.611 180.841 139.774 168.648 136.389C156.456 133.003 149.291 120.328 152.677 108.133C154.317 102.227 158.16 97.3128 163.496 94.2948C166.989 92.3218 170.85 91.3148 174.756 91.3148M174.78 142.122C186.977 142.122 198.198 134.037 201.618 121.726C203.608 114.56 202.689 107.048 199.029 100.574C195.369 94.0998 189.408 89.4378 182.242 87.4468C175.076 85.4588 167.565 86.3758 161.089 90.0368C154.614 93.6968 149.953 99.6588 147.962 106.825C143.855 121.617 152.547 136.995 167.339 141.104C169.821 141.793 172.322 142.122 174.78 142.122" fill="#16084E"/></g><g id="Group 23"><path id="Fill 21" fill-rule="evenodd" clip-rule="evenodd" d="M175.67 138.44C173.431 141.69 172.26 145.595 170.98 149.599C171.787 150.25 172.697 149.578 173.538 149.799C178.54 148.845 183.185 147.081 186.874 143.44C188.094 142.235 189.513 140.973 190.152 139.336C191.691 135.387 186.277 139.185 185.152 139.706C184.111 140.188 183.108 140.718 181.956 140.873C181.813 141.016 181.693 141.361 181.484 140.926C181.623 140.875 181.762 140.822 181.9 140.77C182.446 139.332 186.558 133.705 183.078 132.97C182.292 132.804 181.499 133.182 180.81 133.595C178.595 134.923 176.956 136.573 175.67 138.44" fill="#4b3425"/></g></g><g id="Frame" clip-path="url(#clip0_702_33941499c7f4-2825-4220-a63a-a6969cc12a95)"><path id="Vector" d="M177.824 130.491C177.458 129.556 177.116 128.692 176.775 127.827C173.712 127.881 170.858 127.349 168.331 125.402C166.325 123.863 164.8 121.879 163.815 119.508C161.686 114.31 161.798 108.008 167.91 103.06C168.036 102.031 167.165 101.156 167.242 99.987C168.839 99.1885 170.523 98.6354 172.244 98.1873C172.987 98.9106 172.916 99.8812 173.549 100.722C176.407 100.622 179.373 100.721 182.174 102.807C181.043 104.505 180.399 106.307 179.485 108.086C178.015 107.54 176.623 106.572 175.06 107.043C173.832 107.397 172.533 107.657 171.523 108.524C170.744 109.192 170.218 110.047 169.841 111.006C168.628 114.072 170.008 118.313 172.872 120.26C174.689 121.472 176.607 121.584 178.479 120.926C180.351 120.267 181.694 118.849 182.381 116.638C184.363 117.359 185.993 118.36 187.695 119.14C187.36 121.818 186.049 123.54 182.536 126.155C182.461 127.008 183.158 127.708 183.095 128.597C181.935 129.359 179.741 130.171 177.824 130.491Z" fill="#B5B1FD"/></g></g><defs><clipPath id="clip0_702_33941499c7f4-2825-4220-a63a-a6969cc12a95"><rect width="22.8609" height="32.6585" fill="white" transform="translate(157.996 103.085) rotate(-19.385)"/></clipPath></defs></g><g id="Head" transform="translate(123 40) scale(1 1)"><g id="Head/Two Buns"><g id="Group 14"><path id="Fill 1" fill-rule="evenodd" clip-rule="evenodd" d="M61.6406 45.4771C61.7076 45.0931 61.6736 44.6491 61.8606 44.3371C62.8406 42.7001 62.1756 41.2671 61.3956 39.8301C60.2216 37.6671 58.3256 36.3961 56.0596 35.6731C54.5676 35.1981 53.0716 35.3201 51.5656 35.9041C48.4516 37.1111 47.1146 39.4311 47.0806 42.6411C47.0676 43.8581 47.7026 44.8811 48.3276 45.8271C49.8556 48.1361 51.8616 49.2501 54.8486 48.9491C57.4316 48.6881 59.3726 47.7261 60.9856 45.8211C61.1366 45.6431 61.4266 45.5821 61.6516 45.4671L61.6406 45.4771Z" fill="#453ee3"/><path id="Fill 3" fill-rule="evenodd" clip-rule="evenodd" d="M81.5211 41.8267C81.8491 41.0957 81.9551 40.2057 81.9791 39.4487C82.0091 38.5567 82.0531 37.2847 81.7291 36.4417C81.4751 35.7847 80.8331 35.0817 80.3471 34.5797C79.2401 33.4317 77.8091 32.6667 76.3001 32.1857C74.8081 31.7107 73.3121 31.8327 71.8061 32.4167C68.6911 33.6237 67.3541 35.9437 67.3211 39.1537C67.3081 40.3707 67.9431 41.3937 68.5681 42.3397C70.0951 44.6487 72.1021 45.7637 75.0891 45.4617C76.6891 45.3007 78.2501 44.8217 79.5671 43.8807C80.1661 43.4527 80.8581 42.8997 81.2691 42.2877C81.3651 42.1437 81.4481 41.9887 81.5211 41.8267" fill="#453ee3"/><g id="Group 7"><path id="Fill 5" fill-rule="evenodd" clip-rule="evenodd" d="M56.5596 37.7193C56.3056 38.4603 56.2726 39.2463 56.1696 40.0203C56.0766 40.7213 56.0476 41.4313 55.9806 42.2503C54.8906 42.6283 53.5156 42.6763 53.1636 44.1653C52.9686 44.9913 52.7346 45.8113 53.1246 46.6333C53.9696 48.4163 55.9596 48.7043 58.3926 47.3443C61.8896 50.9883 66.1286 52.5483 70.9426 50.5123C73.0426 49.6233 74.8676 48.1263 75.8286 46.0253C76.9556 43.5613 77.0446 40.4743 76.0726 37.9463C75.5956 36.7043 74.9556 35.4863 74.2116 34.3863C73.2736 32.9973 71.8096 32.1153 70.1456 31.8543C69.0296 31.6783 67.8926 31.7303 66.7626 31.7223C66.1046 31.7173 65.4446 31.6923 64.7886 31.7453C62.1986 31.9563 59.8136 33.4023 58.0746 35.3323C57.4956 35.9763 56.9756 36.6953 56.6436 37.4983C56.6136 37.5723 56.5856 37.6453 56.5596 37.7193" fill="#4b3425"/></g><path id="Fill 8" fill-rule="evenodd" clip-rule="evenodd" d="M56.5713 37.7232C61.7573 36.3172 66.7743 34.4052 71.8313 32.6152C71.8203 32.3602 71.8373 32.0842 71.5693 31.9402C69.7093 30.9442 67.6253 30.2642 65.4933 30.4092C64.4373 30.4812 63.4033 30.7542 62.4403 31.1942C61.5813 31.5852 60.5983 32.1142 59.8683 32.7162C59.4893 33.0302 59.1683 33.4052 58.8493 33.7782C57.9173 34.8662 56.6133 36.2152 56.5713 37.7232" fill="#453ee3"/><path id="Stroke 10 (Stroke)" fill-rule="evenodd" clip-rule="evenodd" d="M58.5028 33.3064C58.7048 33.3945 58.8404 33.5021 58.93 33.6175C59.0822 33.8144 59.1279 34.0721 59.0762 34.3861C59.0241 34.7024 58.8755 35.0544 58.669 35.4038C58.2531 36.1071 57.6421 36.7342 57.2696 36.9667L57.2695 36.9668C57.1836 37.0205 57.0881 37.0645 56.9837 37.0991C56.9547 37.0618 56.9243 37.0207 56.8928 36.9758C56.8902 36.9722 56.8877 36.9686 56.8851 36.9649C56.866 36.9125 56.8503 36.855 56.8378 36.7924C56.7821 36.5122 56.8034 36.173 56.8562 35.8659L56.8562 35.8656C56.8772 35.7428 56.8967 35.5973 56.9172 35.4434L56.9188 35.4314C56.9402 35.2714 56.9633 35.0996 56.9917 34.9231C57.0486 34.568 57.1251 34.2062 57.2441 33.9019C57.3648 33.5934 57.5162 33.3781 57.7009 33.2715C57.8716 33.173 58.1184 33.1407 58.5028 33.3064ZM56.3513 36.0752C56.3615 35.9749 56.3752 35.8777 56.391 35.7859L56.6236 35.8259L56.391 35.7862C56.4105 35.6719 56.429 35.5337 56.4502 35.3749L56.451 35.3689C56.4723 35.2093 56.4962 35.0318 56.5256 34.8483C56.5842 34.4833 56.6669 34.0818 56.8046 33.7299C56.9406 33.3822 57.1436 33.0482 57.465 32.8627C57.8003 32.6692 58.2112 32.6666 58.6901 32.8732L58.6901 32.8732L58.6908 32.8735C58.9525 32.9874 59.1567 33.1397 59.303 33.3282L59.303 33.3282L59.3033 33.3285C59.5605 33.6611 59.6074 34.0654 59.5419 34.4628C59.4769 34.8579 59.2984 35.2666 59.0752 35.644C58.6316 36.3942 57.9721 37.0846 57.5196 37.3671C57.4643 37.4017 57.4071 37.4328 57.3481 37.4608C57.3681 37.5131 57.3696 37.5727 57.3481 37.6291C57.3016 37.7508 57.1652 37.8119 57.0435 37.7654C56.9504 37.7299 56.8688 37.6837 56.7974 37.6294C56.6188 37.6596 56.433 37.6714 56.2444 37.6688C55.7782 37.6623 55.2771 37.5674 54.7903 37.4236C53.8192 37.1368 52.8673 36.6443 52.3071 36.2105L52.3069 36.2104C51.7991 35.8164 51.4021 35.1255 51.5746 34.4339M56.468 37.1921C56.3978 37.1963 56.3254 37.1979 56.2509 37.1968C55.8405 37.1912 55.3838 37.1068 54.924 36.9709C54.0015 36.6985 53.1039 36.2305 52.5961 35.8373C52.1761 35.5113 51.9212 34.9944 52.0326 34.548L52.0326 34.5479C52.1576 34.0457 52.737 33.6968 53.3297 33.7039M56.468 37.1921C56.4678 37.1915 56.4675 37.1909 56.4673 37.1903C56.3141 36.9656 56.1553 36.6934 56.0027 36.4198C55.9129 36.2588 55.8197 36.087 55.7309 35.9232C55.6601 35.7926 55.592 35.6671 55.5306 35.5563C55.3837 35.2909 55.2651 35.0909 55.1822 34.9872M55.1822 34.9872C55.0836 34.8639 54.9911 34.7398 54.9065 34.6264ZM54.9065 34.6264C54.8584 34.562 54.813 34.5011 54.7705 34.4457ZM54.7705 34.4457C54.6475 34.2855 54.5368 34.1546 54.4144 34.048ZM54.4144 34.048C54.183 33.8466 53.8858 33.7108 53.3298 33.7039Z" fill="#B68DF5"/><path id="Stroke 12 (Stroke)" fill-rule="evenodd" clip-rule="evenodd" d="M74.9301 29.8705C74.4674 30.7895 73.6714 31.5376 72.7308 31.9554L73.479 30.6532C73.698 30.2718 73.8997 29.9463 74.2085 29.7833C74.3451 29.7111 74.5229 29.6894 74.6782 29.725C74.7915 29.751 74.8766 29.8025 74.9301 29.8705ZM72.3483 32.5992C73.6774 32.2023 74.8201 31.2208 75.4091 29.9648C75.4364 29.9066 75.4387 29.8397 75.4156 29.7796C75.3029 29.4877 75.0452 29.3249 74.7836 29.265C74.5234 29.2053 74.2295 29.2383 73.988 29.366C73.5389 29.603 73.2768 30.0575 73.0697 30.4181L72.3322 31.7016C72.2549 31.2684 72.1392 30.8424 71.9868 30.429C71.8854 30.1543 71.7211 29.8498 71.4983 29.6247C71.2742 29.3983 70.9624 29.2272 70.5899 29.3056C70.1269 29.4025 69.9275 29.8089 69.8996 30.1913C69.8718 30.5728 70.0007 31.0067 70.2719 31.3006C70.5154 31.5654 70.8169 31.7559 71.0882 31.9273L71.0988 31.934C71.1149 31.9441 71.1308 31.9542 71.1466 31.9642C71.0244 31.9551 70.9141 32.042 70.8959 32.1652C70.8769 32.2942 70.9661 32.4141 71.095 32.4331C71.2412 32.4546 71.3871 32.4759 71.5328 32.4971C71.6786 32.5184 71.8242 32.5396 71.97 32.5611C71.979 32.5624 71.988 32.5632 71.9969 32.5635C72.0298 32.6093 72.079 32.643 72.1368 32.6559C72.2137 32.6731 72.2924 32.6507 72.3483 32.5992ZM71.8874 31.9012C71.7154 31.7652 71.5335 31.6503 71.3634 31.5428L71.351 31.535C71.0675 31.3559 70.8164 31.1955 70.6191 30.9809C70.4464 30.7938 70.351 30.4924 70.3704 30.2256C70.3898 29.9598 70.5089 29.8048 70.6867 29.7676C70.8451 29.7342 71.0032 29.7955 71.1628 29.9567C71.3237 30.1193 71.4574 30.358 71.544 30.5922C71.7004 31.0167 71.8156 31.4554 71.8874 31.9012Z" fill="#B68DF5"/></g></g></g></g></g><g id="Master/Character/Standing" transform="matrix(-1 0 0 1 676 64) scale(1 1)"><g id="Master/Character/Standing"><g id="Lower Body/Standing" transform="translate(55 -12) scale(1 1)"><g id="Lower Body/Standing/Green Pants"><g id="Group 13"><path id="Fill 1" fill-rule="evenodd" clip-rule="evenodd" d="M188.931 223.391C204.948 218.943 221.54 228.322 225.988 244.34C230.437 260.357 221.058 276.948 205.04 281.397C189.023 285.845 172.431 276.467 167.983 260.449C163.534 244.431 172.913 227.841 188.931 223.391Z" fill="#6632CD"/><path id="Fill 3" fill-rule="evenodd" clip-rule="evenodd" d="M196.945 225.181C199.388 225.181 201.846 225.513 204.265 226.185C211.265 228.129 217.09 232.683 220.666 239.008C224.241 245.333 225.139 252.672 223.194 259.672C219.18 274.125 204.157 282.615 189.706 278.603C175.256 274.589 166.763 259.567 170.777 245.115C172.72 238.115 177.275 232.29 183.6 228.714C187.74 226.374 192.315 225.181 196.945 225.181M196.974 285.398C211.429 285.398 224.729 275.815 228.782 261.224C231.14 252.732 230.051 243.828 225.714 236.155C221.376 228.482 214.31 222.956 205.817 220.597C197.325 218.24 188.422 219.327 180.747 223.666C173.073 228.004 167.549 235.071 165.189 243.564C160.321 261.095 170.623 279.321 188.154 284.191C191.096 285.007 194.06 285.398 196.974 285.398" fill="#16084E"/><path id="Fill 5" fill-rule="evenodd" clip-rule="evenodd" d="M118.707 257.963C116.872 257.554 115.367 256.736 115.079 254.972C114.667 252.46 115.197 249.426 115.251 246.877C115.379 240.865 115.509 234.854 115.65 228.842C115.946 216.19 116.279 203.537 116.766 190.89C117.071 182.976 117.414 175.058 117.994 167.158C118.322 162.678 118.687 149.47 118.687 149.47C118.687 149.47 145.191 146.9 157.828 148.558C167.52 149.829 179.297 152.03 187.869 154.93C190.612 155.858 193.351 157.059 196.122 158.591C201.993 161.838 206.141 166.727 208.497 172.932C210.09 177.129 210.93 181.57 211.157 186.047C211.274 188.375 211.256 194.907 209.63 198.562C209.37 199.148 186.888 196.632 186.248 196.6L184.272 183.011C182.5 180 162.811 185.825 152.339 189.382C150.08 204.428 147.815 219.472 145.532 234.514C144.545 241.016 143.556 247.518 142.555 254.019C142.374 255.197 142.405 256.786 141.957 257.889C141.154 259.869 140.426 259.386 138.075 259.364C133.644 259.323 129.215 259.056 124.812 258.557C123.168 258.37 120.735 258.416 118.707 257.963Z" fill="#16084E"/><path id="Fill 9" fill-rule="evenodd" clip-rule="evenodd" d="M155.937 287.631C156.402 286.188 156.5 283.5 155 282.5C149.558 280.503 144.951 277.5 141.5 274.5C141.765 272.243 144.713 253.471 144.951 251.443L113.196 249.501C113.196 249.501 114.079 284.904 113.73 286.897C114.424 287.638 120 286.897 120 286.897C120.948 286.331 121.193 283.5 121.5 283.5C126 289 141.241 287.663 153.5 287.631C154.277 287.629 155.159 287.567 155.937 287.631Z" fill="#B68DF5"/></g><g id="Frame" clip-path="url(#clip0_702_88485909631-e38e-4b8b-afdb-0b5b00ae5c5a)"><path id="Vector" d="M188.059 269.605C188.276 268.447 188.474 267.375 188.672 266.302C185.592 264.45 183.082 262.145 181.78 258.636C180.741 255.856 180.458 252.933 180.954 249.961C182.069 243.464 186.102 237.263 195.261 236.144C196.027 235.199 195.704 233.786 196.509 232.67C198.595 232.87 200.615 233.367 202.606 233.992C202.895 235.174 202.22 236.095 202.328 237.326C205.233 239.005 208.123 240.948 209.611 244.767C207.429 245.752 205.668 247.145 203.651 248.346C202.529 246.888 201.745 245.059 199.897 244.556C198.455 244.143 197.001 243.594 195.457 243.828C194.266 244.008 193.211 244.531 192.239 245.252C189.125 247.548 187.859 252.626 189.497 256.344C190.551 258.68 192.389 259.986 194.662 260.495C196.935 261.005 199.152 260.429 201.212 258.657C202.736 260.607 203.734 262.618 204.943 264.453C202.943 266.909 200.568 267.807 195.445 268.222C194.839 269.025 195.097 270.155 194.481 271C192.853 271.037 190.165 270.479 188.059 269.605Z" fill="#B5B1FD"/></g><path id="Fill 10" fill-rule="evenodd" clip-rule="evenodd" d="M219.222 225.07C219.634 223.946 219.78 221.834 218.588 221.009C214.226 219.3 210.566 216.821 207.843 214.373C208.113 212.604 210.962 197.906 211.205 196.316L185.515 193.986C185.515 193.986 185.362 221.867 185.03 223.427C185.575 224.028 190.113 223.585 190.113 223.585C190.895 223.164 191.163 220.943 191.412 220.95C194.924 225.392 207.31 224.724 217.247 225.009C217.876 225.027 218.593 225 219.222 225.07Z" fill="#B68DF5"/></g><defs><clipPath id="clip0_702_88485909631-e38e-4b8b-afdb-0b5b00ae5c5a"><rect width="26.8272" height="38.3246" fill="white" transform="translate(185.382 230) rotate(12.6336)"/></clipPath></defs></g><g id="Upper Body" transform="translate(-8 22) scale(1 1)"><g id="Upper Body/Holding Credit Card"><g id="Group 22"><g id="Group 3"><path id="Fill 1" fill-rule="evenodd" clip-rule="evenodd" d="M316.595 84.3178L273.823 41.7218C270.12 38.0338 270.108 32.0428 273.795 28.3398L295.262 6.78477C298.949 3.08277 304.941 3.06977 308.644 6.75677L351.415 49.3538C355.118 53.0428 355.13 59.0338 351.443 62.7358L329.977 84.2908C326.288 87.9938 320.297 88.0058 316.595 84.3178" fill="#00DCA7"/><path id="Fill 4" fill-rule="evenodd" clip-rule="evenodd" d="M338.519 75.7133L282.338 19.7623L289.811 12.2583L345.993 68.2093L338.519 75.7133Z" fill="black"/><path id="Fill 6" fill-rule="evenodd" clip-rule="evenodd" d="M317.577 69.85C314.684 72.755 309.983 72.765 307.078 69.871C304.173 66.978 304.163 62.278 307.056 59.372C309.95 56.467 314.65 56.457 317.556 59.351C320.461 62.245 320.471 66.945 317.577 69.85" fill="#83EDC4"/><path id="Fill 8" fill-rule="evenodd" clip-rule="evenodd" d="M324.866 77.1088C321.973 80.0138 317.272 80.0238 314.367 77.1298C311.462 74.2378 311.453 69.5368 314.345 66.6318C317.239 63.7268 321.939 63.7168 324.845 66.6098C327.75 69.5038 327.76 74.2048 324.866 77.1088" fill="black"/><path id="Fill 10" fill-rule="evenodd" clip-rule="evenodd" d="M314.345 66.6322C312.864 68.1192 312.156 70.0762 312.195 72.0222C314.141 72.0542 316.095 71.3372 317.576 69.8502C319.058 68.3622 319.767 66.4042 319.727 64.4592C317.782 64.4272 315.826 65.1442 314.345 66.6322" fill="#5DA086"/><path id="Fill 12" fill-rule="evenodd" clip-rule="evenodd" d="M303.633 8.29235H303.631C303.3 8.29335 302.989 8.42235 302.756 8.65635C302.523 8.89035 302.395 9.20135 302.396 9.53135C302.397 9.86235 302.527 10.1733 302.76 10.4053L316.615 24.2043C316.85 24.4383 317.159 24.5654 317.488 24.5654H317.491C317.821 24.5644 318.132 24.4364 318.365 24.2014C318.846 23.7184 318.845 22.9334 318.362 22.4514L304.506 8.65235C304.273 8.42035 303.963 8.29235 303.633 8.29235V8.29235ZM317.488 25.3004C316.964 25.3004 316.47 25.0953 316.098 24.7253L302.242 10.9253C301.869 10.5543 301.663 10.0603 301.662 9.53335C301.661 9.00735 301.865 8.51235 302.237 8.13935C302.609 7.76635 303.103 7.56035 303.629 7.55835H303.634C304.158 7.55835 304.653 7.76235 305.024 8.13235L318.88 21.9323C319.65 22.6983 319.652 23.9483 318.885 24.7193C318.513 25.0923 318.019 25.2984 317.492 25.3004H317.488Z" fill="white"/><path id="Fill 14" fill-rule="evenodd" clip-rule="evenodd" d="M321.504 37.8061C321.988 38.2871 322.774 38.2851 323.254 37.8031C323.487 37.5691 323.616 37.2581 323.614 36.9271C323.614 36.5971 323.484 36.2861 323.251 36.0531L300.14 13.0371C299.906 12.8041 299.596 12.6761 299.266 12.6761H299.265C298.934 12.6771 298.623 12.8061 298.39 13.0401C297.909 13.5241 297.91 14.3091 298.394 14.7901L321.504 37.8061ZM322.378 38.9001C321.874 38.9001 321.371 38.7081 320.986 38.3271L297.876 15.3101C297.107 14.5431 297.104 13.2931 297.87 12.5231C298.241 12.1501 298.736 11.9441 299.263 11.9421C299.805 11.9371 300.285 12.1451 300.657 12.5171L323.769 35.5331C324.142 35.9051 324.348 36.4001 324.349 36.9251C324.35 37.4521 324.146 37.9481 323.775 38.3211C323.39 38.7061 322.884 38.9001 322.378 38.9001V38.9001Z" fill="white"/></g><path id="Fill 16" fill-rule="evenodd" clip-rule="evenodd" d="M299.349 70.5258C299.734 69.9728 300.069 69.3838 300.402 68.7978C300.844 68.0188 301.291 67.2278 301.506 66.3588C301.893 64.7968 301.875 63.1848 301.281 61.6838C300.46 59.6148 298.539 59.2228 297.285 57.6018C296.74 56.8978 296.487 55.9828 295.857 55.3528C295.367 54.8628 294.698 54.6028 294.024 54.4888C293.612 54.4188 292.793 54.6488 292.486 54.4008C292.295 54.2458 292.203 54.0008 292.141 53.7628C291.863 52.7148 291.939 51.5128 291.256 50.6718C290.121 49.2738 288.171 49.9648 287.665 51.5098C287.515 51.9678 287.476 52.4558 287.41 52.9328C287.259 54.0108 286.951 55.0858 286.403 56.0318C285.661 57.3128 284.321 58.3588 283.282 59.4178C286.884 64.8338 290.499 70.2648 294.747 75.1908C295.686 73.6298 297.428 72.7518 298.655 71.4048C298.907 71.1278 299.135 70.8328 299.349 70.5258" fill="#ffba9a"/><path id="Fill 18" d="M148.297 150.833C148.611 150.913 148.926 150.995 149.239 151.077C151.711 151.723 154.171 152.415 156.617 153.151C158.009 153.569 159.535 153.893 160.866 154.477L162.513 157.833C163.292 159.521 164.748 161.059 163.738 163.105C162.863 164.265 161.784 164.15 160.684 163.746C159.568 163.258 159.429 161.913 158.527 161.267C156.696 162.523 156.782 162.546 156.408 164.056L155.5 168.138C155.5 169 152.553 171.777 150.027 168.138C148.925 168.977 148.5 169.5 146.593 168.662C145.5 167.5 146.12 166.5 146.093 166.098C146.085 165.982 146.062 165.849 145.963 165.789C145.85 165.722 145.708 165.784 145.592 165.846C144.946 166.187 144.213 166.5 143.504 166.321C142.635 166.101 142.09 165.181 142.019 164.287C141.811 161.675 143.392 155.274 144.018 152.748C144.201 152.012 144.321 150.281 144.979 150.008C145.567 149.764 147.65 150.667 148.297 150.833Z" fill="#ffba9a"/><path id="Fill 20" fill-rule="evenodd" clip-rule="evenodd" d="M293.333 78.2641C294.128 77.5821 294.957 76.8521 295.296 75.8611C295.784 74.4351 295.136 72.8921 294.467 71.5411C291.297 65.1271 287.667 63.1711 283.145 57.6251C276.267 60.8601 274.848 66.5621 246.254 74.0131C240.181 75.5961 233.813 75.5001 227.573 75.2251C215.126 74.6751 202.436 72.4521 190.097 75.2321C180.631 77.3641 171.874 82.5351 165.437 89.7961C159.932 96.0071 156.233 103.543 153.462 111.309C152.016 115.359 141.152 149.253 144.368 151.942C145.197 152.635 146.306 152.871 147.367 153.074C152.427 154.037 160.307 154.545 165.437 155C171 134.5 177 116.53 183 102C183.177 101.401 183.5 100.5 184 101C184.047 101.047 183.712 101.802 183.5 103C182.394 109.229 181.535 114.607 181 117C182 117 222.817 117.938 234.296 116.53C232.3 110.884 230.592 105.137 229.181 99.3171C240.224 99.7751 247.449 99.5241 258.156 96.6871C270.295 93.4691 288.723 82.2201 293.333 78.2641Z" fill="#B5B1FD"/><path id="Subtract" fill-rule="evenodd" clip-rule="evenodd" d="M226.797 75.6C230.598 75.7675 234.446 75.8686 238.246 75.5643C238.483 76.7041 238.753 77.8193 239.055 78.9032C240.446 83.887 242.803 89.1203 246.035 93.3058C248.025 95.8816 250.502 97.3073 253.154 98.0879C244.62 99.9545 237.934 100.087 228.405 99.692C229.816 105.512 231.524 111.259 233.52 116.905C232.856 116.986 232.094 117.06 231.247 117.126C228.659 115.678 225.737 114.284 222.521 113.093C211.164 108.887 199.912 112.804 195.631 115.317C194.565 115.939 193.542 116.71 192.573 117.574C187.582 117.511 183.569 117.436 181.576 117.398H181.576L181.574 117.398L181.567 117.398L181.567 117.398C180.789 117.384 180.321 117.375 180.225 117.375C180.574 115.813 181.061 112.98 181.665 109.468L181.665 109.468C181.986 107.599 182.34 105.538 182.725 103.375C182.856 102.634 183.034 102.063 183.139 101.723L183.14 101.723C183.205 101.514 183.242 101.393 183.225 101.375C182.725 100.875 182.402 101.776 182.225 102.375C177.344 114.195 172.463 128.292 167.817 144.175C167.716 144.124 167.615 144.074 167.515 144.023C164.832 142.653 162.717 141.099 161.645 139.464C161.149 138.707 160.901 137.972 160.884 137.241C161.65 137.861 162.703 138.5 164 138.5C164.091 138.5 164.186 138.5 164.285 138.501L164.288 138.501C165.149 138.505 166.293 138.511 167.216 138.215C167.788 138.031 168.403 137.699 168.86 137.089C169.319 136.475 169.5 135.74 169.5 134.972C169.5 133.448 169.113 132.145 168.306 131.183C167.488 130.206 166.369 129.739 165.235 129.663C163.319 129.534 161.294 130.493 159.911 132.071C159.631 131.791 159.351 131.509 159.07 131.227L159.07 131.227C156.058 128.201 152.92 125.048 149.349 122.477L149.27 122.421C150.852 117.162 152.233 112.954 152.686 111.684C153.236 110.144 153.822 108.612 154.451 107.099C166.296 103.969 177.016 95.8684 181.402 84.31C182.311 81.916 183.219 79.5219 184.091 77.1174C185.802 76.5116 187.549 76.0061 189.321 75.607C191.439 75.1299 193.567 74.8001 195.702 74.584C197.582 77.0817 200.036 79.1558 203.133 80.9624L203.202 81.0026L203.274 81.0352C207.888 83.1057 218.105 84.3091 226.295 75.5769C226.463 75.5849 226.63 75.5926 226.797 75.6ZM222.183 75.3328C220.606 75.2241 219.026 75.1019 217.444 74.9796C211.429 74.5143 205.392 74.0473 199.398 74.3172C200.813 75.8143 202.526 77.1279 204.574 78.3298C208.019 79.8443 215.506 80.8771 222.183 75.3328ZM166.152 146.695C166.421 146.833 166.694 146.967 166.97 147.1C166.193 149.809 165.423 152.568 164.661 155.375C163.634 155.284 162.498 155.191 161.295 155.092L161.288 155.092L161.285 155.091L161.283 155.091L161.282 155.091C156.48 154.698 150.635 154.219 146.591 153.449C145.53 153.246 144.421 153.01 143.592 152.317C141.574 150.63 145.1 136.657 148.364 125.479C151.4 127.779 154.111 130.5 156.886 133.287L156.89 133.291C157.369 133.771 157.849 134.254 158.334 134.737C158.038 135.531 157.887 136.331 157.884 137.131C157.877 138.596 158.364 139.931 159.136 141.109C160.644 143.409 163.331 145.255 166.152 146.695ZM197.637 117.63C206.626 117.713 217.329 117.723 225.224 117.444C224.029 116.905 222.78 116.388 221.479 115.907C211.65 112.266 201.772 115.402 197.637 117.63ZM261.038 95.9249C265.835 94.2408 271.211 91.6856 276.192 89.0011C276.099 88.3195 275.819 87.3457 275.162 85.9175C274.926 85.7073 274.709 85.5081 274.503 85.3201L274.501 85.318L274.499 85.3166C273.504 84.4065 272.795 83.7583 271.723 83.3857C270.49 82.9574 268.577 82.8825 265.003 84.1564C262.51 86.2335 261.666 88.021 261.337 89.5475C261.16 90.3691 261.119 91.1723 261.104 92.0255C261.102 92.1703 261.1 92.32 261.099 92.4734C261.091 93.1434 261.083 93.8836 261 94.5905C261.002 95.0878 261.015 95.5281 261.038 95.9249ZM292.557 78.639C290.385 80.5031 285.144 83.9865 278.94 87.486C278.701 86.5784 278.311 85.5503 277.744 84.3568L277.611 84.0764L277.378 83.8719C277.17 83.6898 276.954 83.4899 276.727 83.2801C275.687 82.3175 274.424 81.1482 272.708 80.5519C270.509 79.7882 267.757 79.9541 263.735 81.4246L263.5 81.5107L263.305 81.6687C260.198 84.1906 258.903 86.6037 258.404 88.9149C258.164 90.0314 258.12 91.0723 258.105 91.9738C258.102 92.1618 258.099 92.3402 258.097 92.5107L258.097 92.5123C258.089 93.201 258.082 93.7623 258.012 94.3093L258 94.4043V94.5C258 95.0103 258.011 95.4722 258.032 95.8956C254.125 95.5985 250.795 94.5605 248.41 91.4721C245.463 87.6568 243.256 82.7952 241.945 78.0968C241.685 77.1653 241.451 76.2089 241.242 75.2327C242.666 75.0279 244.08 74.7525 245.478 74.388C266.501 68.9098 272.835 64.377 277.448 61.075C279.11 59.886 280.548 58.8565 282.369 58C283.964 59.9554 285.447 61.4645 286.838 62.8801C289.394 65.4795 291.639 67.7634 293.691 71.916C294.36 73.267 295.008 74.81 294.52 76.236C294.181 77.227 293.352 77.957 292.557 78.639ZM180.336 78.6322C174.387 81.3366 168.998 85.2796 164.661 90.171C161.122 94.164 158.329 98.7045 156.05 103.502C166.111 100.188 174.897 92.9979 178.598 83.2456C179.184 81.6995 179.767 80.1629 180.336 78.6322ZM162.024 134.22C162.232 134.43 162.444 134.634 162.684 134.836C163.275 135.334 163.691 135.5 164 135.5C164.102 135.5 164.201 135.5 164.297 135.5H164.298C164.705 135.501 165.062 135.502 165.403 135.485C165.823 135.464 166.109 135.42 166.299 135.359C166.396 135.327 166.441 135.301 166.459 135.288C166.471 135.259 166.5 135.169 166.5 134.972C166.5 133.938 166.24 133.388 166.007 133.11C165.786 132.846 165.472 132.686 165.035 132.656C164.138 132.596 162.883 133.128 162.024 134.22ZM166.453 135.3C166.452 135.3 166.453 135.298 166.456 135.294C166.454 135.298 166.453 135.3 166.453 135.3ZM166.463 135.285C166.466 135.282 166.467 135.281 166.467 135.281C166.468 135.281 166.466 135.282 166.463 135.285Z" fill="#9089FC"/><path id="Vector 15" d="M277.579 60.9983L283.192 57.1591C292.18 64.6222 295.586 72.524 296.166 75.542L291.994 81.4238L290.596 77.8819L292.196 74.4268L288.669 75.3251L277.579 60.9983Z" fill="#6C66D6"/><path id="Vector 16" d="M166.487 149.954L165.031 156.597C153.371 157.323 145.475 153.903 142.984 152.103L141.991 144.96L145.437 146.581L146.639 150.194L148.592 147.123L166.487 149.954Z" fill="#6C66D6"/></g></g></g><g id="Head" transform="translate(123 40) scale(1 1)"><g id="Head/Short Hair 1"><g id="Group 6"><g id="Group 3"><path id="Fill 1" fill-rule="evenodd" clip-rule="evenodd" d="M56.475 39.4939C56.548 39.2779 56.624 39.0459 56.718 38.7969C57.167 37.6069 57.72 36.4439 58.549 35.4699C59.445 34.4149 60.623 33.6269 61.875 33.0379C63.824 32.1199 66.01 31.6589 68.151 31.8889C69.508 32.0329 70.8409 32.4649 72.0119 33.1709C72.6349 33.5459 73.12 34.0279 73.677 34.4809C74.327 35.0119 74.299 34.9199 75.058 34.6779C75.9444 34.3954 76.6477 34.2944 77.2414 34.4102C79.3539 34.8223 79.5624 38.2078 77.7498 39.3684C77.363 39.616 76.9168 39.8138 76.412 39.9639C76.746 45.3589 74.579 49.3479 69.398 50.9779C64.461 52.5319 60.3636 50.9049 57.4513 46.8207C57.2857 46.5885 57.0345 46.426 56.7497 46.4092C56.0448 46.3676 55.3992 46.4339 54.7574 46.2833C54.6306 46.2535 54.515 46.1895 54.4114 46.1106C54.291 46.0188 54.1622 45.9206 54.052 45.8049C52.36 44.0229 52.731 42.3009 55.007 41.3049C55.974 40.8809 56.203 40.2999 56.475 39.4939Z" fill="#ffba9a"/></g><path id="Fill 4" d="M58.0417 40.9746L58 41C57.6823 41.1815 56.8421 41.3616 56.0234 40.6296C55.9434 40.4086 55.9494 40.1936 56.0634 39.9856C56.1034 39.8966 56.1524 39.8086 56.1784 39.7146C56.1894 39.6736 56.1504 39.6196 56.1344 39.5706C56.1624 38.7456 57.1724 32.8086 63.3914 31.3496C67.6224 30.3386 71.7094 31.5366 73.9594 34.7536C71.5094 34.2746 71.5 34 70 33C68.2002 34.7779 60.128 39.7019 58.0417 40.9746Z" fill="#453ee3"/></g></g></g></g></g><g id="Frame" clip-path="url(#clip0_702_109505dd76ad-6796-46df-9f17-3161b767afe5)"><path id="Vector" d="M172.06 321.605C172.277 320.447 172.475 319.375 172.672 318.302C169.592 316.45 167.083 314.145 165.781 310.636C164.741 307.856 164.459 304.933 164.954 301.961C166.07 295.464 170.102 289.263 179.262 288.144C180.028 287.199 179.705 285.786 180.509 284.67C182.596 284.87 184.615 285.367 186.606 285.992C186.896 287.174 186.22 288.095 186.328 289.326C189.234 291.005 192.123 292.948 193.611 296.767C191.43 297.752 189.668 299.145 187.652 300.346C186.529 298.888 185.746 297.059 183.898 296.556C182.456 296.143 181.002 295.594 179.457 295.828C178.266 296.008 177.211 296.531 176.24 297.252C173.125 299.548 171.859 304.626 173.498 308.344C174.551 310.68 176.39 311.986 178.663 312.495C180.935 313.005 183.153 312.43 185.213 310.657C186.736 312.607 187.735 314.618 188.943 316.453C186.943 318.909 184.568 319.807 179.446 320.222C178.839 321.025 179.098 322.155 178.482 323C176.854 323.037 174.166 322.479 172.06 321.605Z" fill="#B5B1FD"/></g></g><defs><clipPath id="clip0_702_109505dd76ad-6796-46df-9f17-3161b767afe5"><rect width="26.8272" height="38.3246" fill="white" transform="translate(169.382 282) rotate(12.6336)"/></clipPath></defs></svg>